<?xml version="1.0" encoding="utf-8"?>
<!-- Generator: Adobe Illustrator 20.1.0, SVG Export Plug-In . SVG Version: 6.00 Build 0)  -->
<svg version="1.1" xmlns="http://www.w3.org/2000/svg" xmlns:xlink="http://www.w3.org/1999/xlink" x="0px" y="0px"
	 viewBox="0 0 210 210" style="enable-background:new 0 0 210 210;" xml:space="preserve">
<style type="text/css">
	.st0{clip-path:url(#SVGID_2_);}
	.st1{clip-path:url(#SVGID_4_);fill:#F2E6CD;}
	.st2{clip-path:url(#SVGID_6_);}
	.st3{clip-path:url(#SVGID_8_);fill:#FF6527;}
	.st4{clip-path:url(#SVGID_10_);}
	.st5{clip-path:url(#SVGID_12_);fill:#F56025;}
	.st6{clip-path:url(#SVGID_14_);}
	.st7{clip-path:url(#SVGID_16_);fill:#22437E;}
	.st8{clip-path:url(#SVGID_18_);}
	.st9{clip-path:url(#SVGID_20_);fill:#14274A;}
	.st10{clip-path:url(#SVGID_22_);}
	.st11{clip-path:url(#SVGID_24_);fill:#FF6527;}
	.st12{clip-path:url(#SVGID_26_);}
	.st13{clip-path:url(#SVGID_28_);fill:#FCFAF5;}
	.st14{clip-path:url(#SVGID_30_);}
	.st15{fill:#14274A;}
	.st16{clip-path:url(#SVGID_32_);}
	.st17{fill:#48434F;}
	.st18{clip-path:url(#SVGID_34_);}
	.st19{clip-path:url(#SVGID_36_);fill:#FFB293;}
	.st20{clip-path:url(#SVGID_38_);}
	.st21{clip-path:url(#SVGID_40_);fill:#90A1BE;}
	.st22{fill:#22437E;}
	.st23{fill:#FFB293;}
	.st24{fill:#FF6527;}
	.st25{fill:#90A1BE;}
	.st26{fill:none;stroke:#FF6527;stroke-width:5;stroke-miterlimit:10;}
</style>
<g id="Capa_1">
	<path class="st24" d="M119.2,86.4c-8.5-4.9-18.6-6.9-28.4-5.6c-1,0.1-1.7,1-1.6,1.9l0.7,12c0,0.5,0.3,1,0.7,1.3
		c0.4,0.3,0.9,0.5,1.5,0.4c6.6-1.1,13.5,0.2,19.3,3.5c5.8,3.3,10.3,8.6,12.7,14.9c0.2,0.5,0.6,0.9,1.1,1.1c0.2,0.1,0.4,0.1,0.7,0.1
		c0.3,0,0.6-0.1,0.8-0.2l10.7-5.4c0.9-0.4,1.3-1.5,0.9-2.4C134.4,98.9,127.8,91.4,119.2,86.4z"/>
	<path class="st23" d="M130.9,66.2c-12.5-7.2-27.1-10.3-41.4-8.7c-1,0.1-1.7,1-1.6,2l0.7,11.9c0,0.5,0.3,1,0.7,1.3
		c0.4,0.3,0.9,0.5,1.4,0.4c11.2-1.3,22.7,1,32.5,6.7c9.9,5.7,17.4,14.2,21.9,24.7c0.2,0.5,0.6,0.8,1.1,1c0.2,0.1,0.4,0.1,0.6,0.1
		c0.3,0,0.6-0.1,0.8-0.2l10.7-5.3c0.9-0.4,1.3-1.5,0.9-2.4C153.2,84.4,143.5,73.5,130.9,66.2z"/>
	<path class="st24" d="M180.8,86.8c-8-17.5-21.1-31.9-37.8-41.6c-14-8.1-30-12.4-46.1-12.4c-3,0-6,0.1-8.9,0.4c-1,0.1-1.7,1-1.7,2
		L87,47.2c0,0.5,0.3,1,0.7,1.3c0.4,0.3,0.9,0.5,1.4,0.4c15.9-1.6,32.2,1.8,46.1,9.9c14,8.1,24.9,20.1,31.5,34.9
		c0.2,0.5,0.6,0.8,1.1,1c0.2,0.1,0.4,0.1,0.6,0.1c0.3,0,0.6-0.1,0.8-0.2l10.7-5.3C180.8,88.8,181.2,87.7,180.8,86.8z"/>
	<path class="st22" d="M94.1,106.9c-6.3,0-12.2,2.4-16.6,6.9c-4.4,4.4-6.9,10.3-6.9,16.6c0,6.2,2.4,12.1,6.8,16.5l15.2,19.2
		c0.4,0.4,0.9,0.7,1.4,0.7c0.6,0,1.1-0.3,1.4-0.7l15.2-19.2c4.4-4.4,6.8-10.3,6.8-16.5c0-6.3-2.4-12.2-6.9-16.6
		C106.3,109.3,100.4,106.9,94.1,106.9z M101.4,137.1c-1.9,1.9-4.5,3-7.3,3s-5.3-1.1-7.3-3c-4-4-4-10.6,0-14.6c1.9-1.9,4.5-3,7.3-3
		s5.3,1.1,7.3,3C105.4,126.5,105.4,133.1,101.4,137.1z"/>
	<circle class="st26" cx="104.4" cy="101.9" r="92"/>
</g>
<g id="Capa_2">
</g>
</svg>
