<?xml version="1.0" encoding="utf-8"?>
<!-- Generator: Adobe Illustrator 20.1.0, SVG Export Plug-In . SVG Version: 6.00 Build 0)  -->
<svg version="1.1" xmlns="http://www.w3.org/2000/svg" xmlns:xlink="http://www.w3.org/1999/xlink" x="0px" y="0px"
	 viewBox="0 0 210 210" style="enable-background:new 0 0 210 210;" xml:space="preserve">
<style type="text/css">
	.st0{clip-path:url(#SVGID_2_);}
	.st1{clip-path:url(#SVGID_4_);fill:#F2E6CD;}
	.st2{clip-path:url(#SVGID_6_);}
	.st3{clip-path:url(#SVGID_8_);fill:#FF6527;}
	.st4{clip-path:url(#SVGID_10_);}
	.st5{clip-path:url(#SVGID_12_);fill:#F56025;}
	.st6{clip-path:url(#SVGID_14_);}
	.st7{clip-path:url(#SVGID_16_);fill:#22437E;}
	.st8{clip-path:url(#SVGID_18_);}
	.st9{clip-path:url(#SVGID_20_);fill:#14274A;}
	.st10{clip-path:url(#SVGID_22_);}
	.st11{clip-path:url(#SVGID_24_);fill:#FF6527;}
	.st12{clip-path:url(#SVGID_26_);}
	.st13{clip-path:url(#SVGID_28_);fill:#FCFAF5;}
	.st14{clip-path:url(#SVGID_30_);}
	.st15{fill:#14274A;}
	.st16{clip-path:url(#SVGID_32_);}
	.st17{fill:#48434F;}
	.st18{clip-path:url(#SVGID_34_);}
	.st19{clip-path:url(#SVGID_36_);fill:#FFB293;}
	.st20{clip-path:url(#SVGID_38_);}
	.st21{clip-path:url(#SVGID_40_);fill:#90A1BE;}
	.st22{fill:#22437E;}
	.st23{fill:#FFB293;}
	.st24{fill:#FF6527;}
	.st25{fill:#90A1BE;}
	.st26{fill:none;stroke:#FF6527;stroke-width:5;stroke-miterlimit:10;}
</style>
<g id="Capa_1">
	<circle class="st26" cx="105.6" cy="103.1" r="92"/>
	<g>
		<g>
			<path class="st23" d="M143.9,103.1c0-1.4,1.1-2.6,2.6-2.6h12.7c-1.3-27.6-23.4-49.7-51-51v12.7c0,1.4-1.1,2.6-2.6,2.6
				s-2.6-1.1-2.6-2.6V49.5c-27.6,1.3-49.7,23.4-51,51h12.7c1.4,0,2.6,1.1,2.6,2.6c0,1.4-1.1,2.6-2.6,2.6H52
				c1.3,27.6,23.4,49.7,51,51V144c0-1.4,1.1-2.6,2.6-2.6s2.6,1.1,2.6,2.6v12.7c27.6-1.3,49.7-23.4,51-51h-12.7
				C145.1,105.6,143.9,104.5,143.9,103.1z M138.1,74.2l-25.6,25.6c0.5,1,0.8,2.1,0.8,3.3c0,4.2-3.4,7.7-7.7,7.7
				c-3.3,0-6.1-2.1-7.2-5.1H80c-1.4,0-2.6-1.1-2.6-2.6s1.1-2.6,2.6-2.6h18.4c1.1-3,3.9-5.1,7.2-5.1c1.2,0,2.3,0.3,3.3,0.8l25.6-25.6
				c1-1,2.6-1,3.6,0C139.1,71.6,139.1,73.2,138.1,74.2z"/>
			<path class="st22" d="M105.6,34c-38.1,0-69,31-69,69s31,69,69,69s69-31,69-69S143.7,34,105.6,34z M105.6,161.9
				c-32.4,0-58.8-26.4-58.8-58.8c0-32.4,26.4-58.8,58.8-58.8c32.4,0,58.8,26.4,58.8,58.8C164.4,135.5,138,161.9,105.6,161.9z"/>
		</g>
	</g>
</g>
<g id="Capa_2">
</g>
</svg>
