<?xml version="1.0" encoding="utf-8"?>
<!-- Generator: Adobe Illustrator 20.1.0, SVG Export Plug-In . SVG Version: 6.00 Build 0)  -->
<svg version="1.1" xmlns="http://www.w3.org/2000/svg" xmlns:xlink="http://www.w3.org/1999/xlink" x="0px" y="0px"
	 viewBox="0 0 210 210" style="enable-background:new 0 0 210 210;" xml:space="preserve">
<style type="text/css">
	.st0{clip-path:url(#SVGID_2_);}
	.st1{clip-path:url(#SVGID_4_);fill:#F2E6CD;}
	.st2{clip-path:url(#SVGID_6_);}
	.st3{clip-path:url(#SVGID_8_);fill:#FF6527;}
	.st4{clip-path:url(#SVGID_10_);}
	.st5{clip-path:url(#SVGID_12_);fill:#F56025;}
	.st6{clip-path:url(#SVGID_14_);}
	.st7{clip-path:url(#SVGID_16_);fill:#22437E;}
	.st8{clip-path:url(#SVGID_18_);}
	.st9{clip-path:url(#SVGID_20_);fill:#14274A;}
	.st10{clip-path:url(#SVGID_22_);}
	.st11{clip-path:url(#SVGID_24_);fill:#FF6527;}
	.st12{clip-path:url(#SVGID_26_);}
	.st13{clip-path:url(#SVGID_28_);fill:#FCFAF5;}
	.st14{clip-path:url(#SVGID_30_);}
	.st15{fill:#14274A;}
	.st16{clip-path:url(#SVGID_32_);}
	.st17{fill:#48434F;}
	.st18{clip-path:url(#SVGID_34_);}
	.st19{clip-path:url(#SVGID_36_);fill:#FFB293;}
	.st20{clip-path:url(#SVGID_38_);}
	.st21{clip-path:url(#SVGID_40_);fill:#90A1BE;}
	.st22{fill:#22437E;}
	.st23{fill:#FFB293;}
	.st24{fill:#FF6527;}
	.st25{fill:#90A1BE;}
	.st26{fill:none;stroke:#FF6527;stroke-width:5;stroke-miterlimit:10;}
</style>
<g id="Capa_1">
	<circle class="st26" cx="105" cy="102.7" r="92"/>
	<g>
		<g>
			<g>
				<path class="st24" d="M140.5,118.5c-1.8-1.8-3.5-3.6-5.3-5.3c-2.8-2.8-5.6-5.6-8.4-8.5c-0.6-0.7-1.3-1.3-1.9-2
					c0,1.6,0,3.1,0,4.7c1.8-1.8,3.5-3.5,5.3-5.3c2.8-2.8,5.6-5.6,8.4-8.4c0.6-0.6,1.3-1.3,1.9-1.9c0.6-0.6,1-1.5,1-2.3
					c0-0.8-0.4-1.8-1-2.3c-0.6-0.6-1.5-1-2.3-1c-0.9,0-1.7,0.3-2.3,1c-1.8,1.8-3.5,3.5-5.3,5.3c-2.8,2.8-5.6,5.6-8.4,8.4
					c-0.6,0.6-1.3,1.3-1.9,1.9c-1.3,1.3-1.3,3.4,0,4.7c1.8,1.8,3.5,3.6,5.3,5.3c2.8,2.8,5.6,5.6,8.4,8.5c0.6,0.7,1.3,1.3,1.9,2
					c0.6,0.6,1.5,1,2.3,1c0.8,0,1.8-0.4,2.3-1c0.6-0.6,1-1.5,1-2.3C141.4,120,141.1,119.2,140.5,118.5L140.5,118.5z"/>
			</g>
		</g>
		<g>
			<g>
				<path class="st24" d="M122.6,108.4c1,0,1.9,0,2.9,0c2.3,0,4.5,0,6.8,0c2.7,0,5.3,0,8,0c2.2,0,4.3,0,6.5,0c1.2,0,2.4,0,3.6,0
					c0.5,0,0.9,0.1,1.4,0.1c-0.3,0-0.6-0.1-0.9-0.1c1.7,0.2,3.5,0.7,5.1,1.4c-0.3-0.1-0.5-0.2-0.8-0.3c1.6,0.7,3.1,1.6,4.5,2.6
					c-0.2-0.2-0.4-0.3-0.7-0.5c1.4,1.1,2.6,2.3,3.7,3.7c-0.2-0.2-0.3-0.4-0.5-0.7c1.1,1.4,2,2.9,2.6,4.5c-0.1-0.3-0.2-0.5-0.3-0.8
					c0.7,1.6,1.1,3.3,1.4,5.1c0-0.3-0.1-0.6-0.1-0.9c0.2,1.8,0.2,3.6,0,5.3c0-0.3,0.1-0.6,0.1-0.9c-0.2,1.7-0.7,3.5-1.4,5.1
					c0.1-0.3,0.2-0.5,0.3-0.8c-0.7,1.6-1.6,3.1-2.6,4.5c0.2-0.2,0.3-0.4,0.5-0.7c-1.1,1.4-2.3,2.6-3.7,3.7c0.2-0.2,0.4-0.3,0.7-0.5
					c-1.4,1.1-2.9,2-4.5,2.6c0.3-0.1,0.5-0.2,0.8-0.3c-1.6,0.7-3.3,1.1-5.1,1.4c0.3,0,0.6-0.1,0.9-0.1c-1.6,0.2-3.2,0.2-4.8,0.2
					c-2.4,0-4.7,0-7.1,0c-3.1,0-6.1,0-9.2,0c-2.7,0-5.4,0-8.1,0c-1.3,0-2.7,0-4,0c0,0,0,0-0.1,0c-0.8,0-1.7,0.4-2.3,1
					c-0.6,0.6-1,1.5-1,2.3c0,0.9,0.3,1.7,1,2.3c0.6,0.6,1.4,1,2.3,1c2,0,4,0,6,0c4.1,0,8.3,0,12.4,0c3.5,0,6.9,0,10.4,0
					c0.6,0,1.2,0,1.8,0c1.7,0,3.3-0.2,5-0.5c1.7-0.4,3.3-0.9,4.9-1.6c1.3-0.6,2.6-1.3,3.7-2.2c1.4-1,2.6-2.1,3.8-3.3
					c2.3-2.5,4-5.5,5.1-8.8c2.1-6.4,1.1-13.6-2.4-19.3c-1.8-2.9-4.1-5.3-6.9-7.2c-1.4-1-2.9-1.7-4.5-2.4c-1.4-0.6-2.8-1-4.3-1.3
					c-1.7-0.3-3.4-0.4-5.1-0.4c-1.3,0-2.5,0-3.8,0c-4.1,0-8.2,0-12.3,0c-3.1,0-6.1,0-9.2,0c-0.2,0-0.3,0-0.5,0c-0.8,0-1.7,0.4-2.3,1
					c-0.6,0.6-1,1.5-1,2.3c0,0.9,0.3,1.7,1,2.3C120.9,108,121.7,108.4,122.6,108.4L122.6,108.4z"/>
			</g>
		</g>
	</g>
	<g>
		<path class="st22" d="M98.2,54.4c1.6,0,2.9,1.3,2.9,2.9v5.8h-52v-5.8c0-1.6,1.3-2.9,2.9-2.9H98.2z"/>
		<path class="st22" d="M101.2,68.9H49l-11.1,48.9c-2.1,9,4.8,17.6,14.1,17.6h46.3c9.3,0,16.1-8.6,14.1-17.6L101.2,68.9z
			 M77.3,102.1c-2,7.2-7.9,11.4-13.1,9.8c-5.2-1.7-7.8-8.5-5.8-15.5c2-7.2,7.9-11.4,13.1-9.8C76.8,88.2,79.3,95.1,77.3,102.1z
			 M98.2,129.6c-5.6,0-9.7-5.2-8.4-10.6l8.4-37.1l8.4,37.1C107.9,124.5,103.8,129.6,98.2,129.6z"/>
	</g>
</g>
<g id="Capa_2">
</g>
</svg>
