<?xml version="1.0" encoding="utf-8"?>
<!-- Generator: Adobe Illustrator 20.1.0, SVG Export Plug-In . SVG Version: 6.00 Build 0)  -->
<svg version="1.1" xmlns="http://www.w3.org/2000/svg" xmlns:xlink="http://www.w3.org/1999/xlink" x="0px" y="0px"
	 viewBox="0 0 210 210" style="enable-background:new 0 0 210 210;" xml:space="preserve">
<style type="text/css">
	.st0{clip-path:url(#SVGID_2_);}
	.st1{clip-path:url(#SVGID_4_);fill:#F2E6CD;}
	.st2{clip-path:url(#SVGID_6_);}
	.st3{clip-path:url(#SVGID_8_);fill:#FF6527;}
	.st4{clip-path:url(#SVGID_10_);}
	.st5{clip-path:url(#SVGID_12_);fill:#F56025;}
	.st6{clip-path:url(#SVGID_14_);}
	.st7{clip-path:url(#SVGID_16_);fill:#22437E;}
	.st8{clip-path:url(#SVGID_18_);}
	.st9{clip-path:url(#SVGID_20_);fill:#14274A;}
	.st10{clip-path:url(#SVGID_22_);}
	.st11{clip-path:url(#SVGID_24_);fill:#FF6527;}
	.st12{clip-path:url(#SVGID_26_);}
	.st13{clip-path:url(#SVGID_28_);fill:#FCFAF5;}
	.st14{clip-path:url(#SVGID_30_);}
	.st15{fill:#14274A;}
	.st16{clip-path:url(#SVGID_32_);}
	.st17{fill:#48434F;}
	.st18{clip-path:url(#SVGID_34_);}
	.st19{clip-path:url(#SVGID_36_);fill:#FFB293;}
	.st20{clip-path:url(#SVGID_38_);}
	.st21{clip-path:url(#SVGID_40_);fill:#90A1BE;}
	.st22{fill:#22437E;}
	.st23{fill:#FFB293;}
	.st24{fill:#FF6527;}
	.st25{fill:#90A1BE;}
	.st26{fill:none;stroke:#FF6527;stroke-width:5;stroke-miterlimit:10;}
</style>
<g id="Capa_1">
	<circle class="st26" cx="105" cy="102.7" r="92"/>
	<g>
		<g>
			<path class="st22" d="M140.3,79.1L124,95.5c0.6,1.8,0.9,3.8,0.9,5.8c0,11.1-9,20.1-20.1,20.1c-2,0-4-0.3-5.8-0.9l-13.6,13.6
				c6.1,2.6,12.6,4,19.5,4c22.6,0,41.9-15.2,50.3-36.9C151.7,92.7,146.6,85.2,140.3,79.1z"/>
		</g>
		<g>
			<path class="st22" d="M90.5,115.6c-3.6-3.6-5.9-8.7-5.9-14.2c0-11.1,9-20.1,20.1-20.1c5.6,0,10.6,2.3,14.2,5.9l14-14
				c-8.2-5.5-17.9-8.7-28.2-8.7c-22.6,0-41.9,15.2-50.3,36.9c4.5,11.8,12.3,21.6,22.1,28.2l42.3-42.3L90.5,115.6z"/>
		</g>
		<g>
			<path class="st24" d="M61.2,148.3c-0.9,0-1.7-0.3-2.4-1c-1.3-1.3-1.3-3.4,0-4.7l87.1-87.1c1.3-1.3,3.4-1.3,4.7,0s1.3,3.4,0,4.7
				l-87.1,87.1C62.9,147.9,62,148.3,61.2,148.3z"/>
		</g>
	</g>
</g>
<g id="Capa_2">
</g>
</svg>
