<svg id="Capa_1" data-name="Capa 1" xmlns="http://www.w3.org/2000/svg" viewBox="0 0 504.78 126.29"><title>swiftpack-logo-blue</title><path d="M52.82,73.18q1.12-6.33-6.22-9.68L36.33,59.4q-17.87-8-17-22a20.18,20.18,0,0,1,4.25-11.49,25.58,25.58,0,0,1,10.9-7.84,38.6,38.6,0,0,1,15.16-2.74Q60.9,15.58,67.81,22t6.81,17.31H59.09q.27-5.27-2.31-8.19t-8-3a16.14,16.14,0,0,0-9.25,2.42,9.93,9.93,0,0,0-4.68,6.94q-1,5.8,7.76,9.2l7,2.66,4,1.86Q69.36,59,68.35,73A21,21,0,0,1,64,84.85a24.73,24.73,0,0,1-10.64,7.63A37.89,37.89,0,0,1,38.51,95a33.18,33.18,0,0,1-14.68-3.46A22.8,22.8,0,0,1,14,82.22a24.1,24.1,0,0,1-2.93-12.76l15.58.05Q26,82.11,39.09,82.32a16.28,16.28,0,0,0,9.36-2.5A9.73,9.73,0,0,0,52.82,73.18Z" fill="#ffb293"/><path d="M126.69,72.91l13.67-36.59H155.3L131.1,93.87H118.55l-4.25-36-16.81,36H84.94L80.68,36.32h14l.9,36.22,16.43-36.22h10.85Z" fill="#ffb293"/><path d="M168.76,93.87h-15.1l10-57.55h15.1Z" fill="#ffb293"/><path d="M185.51,93.87l8-46.32h-8.3l2-11.22,8.3-.05.74-5.74q1.38-9.2,7.5-14.44T219.33,11a50.15,50.15,0,0,1,8.14,1.11L226.14,24a18.6,18.6,0,0,0-4.41-.64,11,11,0,0,0-6.83,2,9.22,9.22,0,0,0-3.54,6.25l-.8,4.7h11.12l-2,11.22H208.64l-8,46.32Z" fill="#ffb293"/><path d="M250.29,22.17l-2.5,14.15h9.57l-2,11.28h-9.57l-4.89,28.83a7.33,7.33,0,0,0,.43,4.15Q242.1,82,245,82.11q.85.05,4.57-.27L248.48,93.6a25.23,25.23,0,0,1-8.62,1.22q-7.39-.11-11-4.63t-3-12.23l4.95-30.37h-8.14l2-11.28h8.14l2.45-14.15Z" fill="#ffb293"/><path d="M175.42,7.89,181,0h7.8l-9.64,13.38,5.39,13.23h-7l-3.27-8.31-5.88,8.31h-7.84l10-13.92L165.41,0h7Z" fill="#ffb293"/><path d="M315.11,75.55a47.53,47.53,0,0,1-4.73,16.06,26,26,0,0,1-9,10.42,20.82,20.82,0,0,1-11.91,3.24,16.61,16.61,0,0,1-13.19-6.22L271,126.29H256L269.8,46.62l13.83-.05-1,5.8q6.22-7,14.68-6.81t13.14,6.14q4.68,5.93,5,16.09A62.17,62.17,0,0,1,315.11,75.55Zm-14.89-1.09.32-5.11q.11-5.17-1.89-8.2A6.77,6.77,0,0,0,292.83,58q-6.54-.21-10.8,5.54l-4.31,23.76q2,5.38,8.46,5.59a10.81,10.81,0,0,0,9-4.21Q298.84,84.31,300.22,74.46Z" fill="#ff6527"/><path d="M353.14,104.16a15.53,15.53,0,0,1-.59-5.21q-6.49,6.49-14.68,6.28a17.66,17.66,0,0,1-12.52-4.92,14.88,14.88,0,0,1-4.65-11.89A17.2,17.2,0,0,1,328.59,74q7.53-5,20.18-5l7,.11.74-3.46a12,12,0,0,0,.16-3.35,5.76,5.76,0,0,0-1.89-3.91,6.5,6.5,0,0,0-4.28-1.46,9.16,9.16,0,0,0-6,1.73,8.38,8.38,0,0,0-3.14,5.29L326.39,64q.37-8.24,7.58-13.38t17.79-5q9.79.21,15.32,5.82t4.63,14.44l-4.41,27.55-.27,3.4a16.42,16.42,0,0,0,.9,6.38l-.05,1ZM341.6,93.58q6.49.21,11.33-5.64L354.79,78l-5.21-.05q-8.3.21-12,5.05A8.8,8.8,0,0,0,336,87.3a5.1,5.1,0,0,0,1.2,4.55A6.06,6.06,0,0,0,341.6,93.58Z" fill="#ff6527"/><path d="M402.23,92.89a9.85,9.85,0,0,0,6.91-2.26,11.11,11.11,0,0,0,3.62-6.3l14.09-.05a20.67,20.67,0,0,1-3.8,10.9,23.1,23.1,0,0,1-9.15,7.55,26.19,26.19,0,0,1-12,2.55q-10.48-.16-16.59-7.23t-5.9-18.83l.16-2.93.05-.59q1.44-14,9.47-22.26a25.6,25.6,0,0,1,19.84-7.9q9.73.21,15.45,6.36t5.61,16.19h-14a11.78,11.78,0,0,0-2-7.29,7.68,7.68,0,0,0-6.06-2.87q-10.74-.32-13,15.69a53,53,0,0,0-.59,9.79Q394.78,92.73,402.23,92.89Z" fill="#ff6527"/><path d="M457.54,81.24l-7,6.06-2.93,16.86h-15l14.15-81.69h15.05l-7.76,44.36L457,63.69l17.07-17.07h19.25L468.17,71.35l16,32.81H467.75Z" fill="#ff6527"/></svg>