<svg id="Capa_1" data-name="Capa 1" xmlns="http://www.w3.org/2000/svg" viewBox="0 0 504.78 126.29"><title>swiftpack-logo-blue</title><path d="M52.6,74.06q1.12-6.33-6.22-9.68l-10.26-4.1q-17.87-8-17-22A20.18,20.18,0,0,1,23.4,26.83,25.58,25.58,0,0,1,34.3,19a38.6,38.6,0,0,1,15.16-2.74q11.22.21,18.14,6.67T74.4,40.23H58.87Q59.14,35,56.56,32t-8-3a16.14,16.14,0,0,0-9.25,2.42,9.93,9.93,0,0,0-4.68,6.94q-1,5.8,7.76,9.2l7,2.66,4,1.86Q69.14,59.86,68.13,73.9a21,21,0,0,1-4.39,11.83A24.73,24.73,0,0,1,53.1,93.36a37.89,37.89,0,0,1-14.81,2.5,33.18,33.18,0,0,1-14.68-3.46,22.8,22.8,0,0,1-9.79-9.31A24.1,24.1,0,0,1,10.9,70.34l15.58.05Q25.74,83,38.88,83.21a16.28,16.28,0,0,0,9.36-2.5A9.73,9.73,0,0,0,52.6,74.06Z" fill="#90a1be"/><path d="M126.47,73.79,140.14,37.2h14.94l-24.2,57.55H118.33l-4.25-36-16.81,36H84.72L80.47,37.2h14l.9,36.22L111.84,37.2h10.85Z" fill="#90a1be"/><path d="M168.54,94.75h-15.1l10-57.55h15.1Z" fill="#90a1be"/><path d="M185.29,94.75l8-46.32H185l2-11.22,8.3-.05L196,31.4q1.38-9.2,7.5-14.44t15.58-5.13a50.15,50.15,0,0,1,8.14,1.11l-1.33,11.92a18.6,18.6,0,0,0-4.41-.64,11,11,0,0,0-6.83,2,9.22,9.22,0,0,0-3.54,6.25l-.8,4.7h11.12l-2,11.22H208.43l-8,46.32Z" fill="#90a1be"/><path d="M250.07,23.06l-2.5,14.15h9.57l-2,11.28H245.6L240.71,77.3a7.33,7.33,0,0,0,.43,4.15q.74,1.44,3.62,1.54.85.05,4.57-.27l-1.06,11.75a25.23,25.23,0,0,1-8.62,1.22q-7.39-.11-11-4.63t-3-12.23l4.95-30.37h-8.14l2-11.28h8.14L235,23.06Z" fill="#90a1be"/><path d="M175.2,8.78,180.78.88h7.8l-9.64,13.38,5.39,13.23h-7L174,19.18l-5.88,8.31h-7.84l10-13.92L165.19.88h7Z" fill="#90a1be"/><path d="M314.89,76.43a47.53,47.53,0,0,1-4.73,16.06,26,26,0,0,1-9,10.42,20.82,20.82,0,0,1-11.91,3.24,16.61,16.61,0,0,1-13.19-6.22l-5.27,27.23h-15L269.58,47.5l13.83-.05-1,5.8q6.22-7,14.68-6.81t13.14,6.14q4.68,5.93,5,16.09A62.17,62.17,0,0,1,314.89,76.43ZM300,75.34l.32-5.11q.11-5.17-1.89-8.2a6.77,6.77,0,0,0-5.82-3.14q-6.54-.21-10.8,5.54L277.5,88.17q2,5.38,8.46,5.59a10.81,10.81,0,0,0,9-4.21Q298.62,85.2,300,75.34Z" fill="#22437e"/><path d="M352.92,105a15.53,15.53,0,0,1-.59-5.21q-6.49,6.49-14.68,6.28a17.66,17.66,0,0,1-12.52-4.92,14.88,14.88,0,0,1-4.65-11.89,17.2,17.2,0,0,1,7.9-14.44q7.53-5,20.18-5l7,.11.74-3.46a12,12,0,0,0,.16-3.35,5.76,5.76,0,0,0-1.89-3.91,6.5,6.5,0,0,0-4.28-1.46,9.16,9.16,0,0,0-6,1.73,8.38,8.38,0,0,0-3.14,5.29l-15.05.05q.37-8.24,7.58-13.38t17.79-5q9.79.21,15.32,5.82t4.63,14.44l-4.41,27.55-.27,3.4a16.42,16.42,0,0,0,.9,6.38l-.05,1ZM341.38,94.46q6.49.21,11.33-5.64l1.86-9.95-5.21-.05q-8.3.21-12,5.05a8.8,8.8,0,0,0-1.65,4.31,5.1,5.1,0,0,0,1.2,4.55A6.06,6.06,0,0,0,341.38,94.46Z" fill="#22437e"/><path d="M402,93.77a9.85,9.85,0,0,0,6.91-2.26,11.11,11.11,0,0,0,3.62-6.3l14.09-.05a20.67,20.67,0,0,1-3.8,10.9,23.1,23.1,0,0,1-9.15,7.55,26.19,26.19,0,0,1-12,2.55Q391.16,106,385,98.93t-5.9-18.83l.16-2.93.05-.59q1.44-14,9.47-22.26a25.6,25.6,0,0,1,19.84-7.9q9.73.21,15.45,6.36T429.72,69h-14a11.78,11.78,0,0,0-2-7.29,7.68,7.68,0,0,0-6.06-2.87q-10.74-.32-13,15.69A53,53,0,0,0,394,84.3Q394.56,93.61,402,93.77Z" fill="#22437e"/><path d="M457.32,82.12l-7,6.06L447.43,105h-15l14.15-81.69h15.05l-7.76,44.36,2.93-3.14L473.86,47.5h19.25L468,72.23,484,105H467.53Z" fill="#22437e"/></svg>